<?xml version="1.0" encoding="utf-8"?>
<!-- Generator: Adobe Illustrator 22.0.0, SVG Export Plug-In . SVG Version: 6.00 Build 0)  -->
<svg version="1.1" id="Calque_1" xmlns="http://www.w3.org/2000/svg" xmlns:xlink="http://www.w3.org/1999/xlink" x="0px" y="0px"
	 width="174px" height="26px" viewBox="0 0 174 26" style="enable-background:new 0 0 174 26;" xml:space="preserve">
<style type="text/css">
	.st0{fill:#2557D6;}
	.st1{fill:#FFFFFF;}
	.st2{fill:#0E4C96;}
	.st3{fill:url(#SVGID_1_);}
	.st4{fill:url(#SVGID_2_);}
	.st5{fill:url(#SVGID_3_);}
	.st6{fill:#D9222A;}
	.st7{fill:#EE9F2D;}
	.st8{fill:#0E4595;}
	.st9{fill:#F2AE14;}
</style>
<g>
	<path class="st0" d="M2.2,0h37.5C41,0,42,1,42,2.2v21.6c0,1.2-1,2.2-2.2,2.2H2.2C1,26,0,25,0,23.8V2.2C0,1,1,0,2.2,0z"/>
	<path class="st1" d="M0,12.2h2l0.5-1.1h1l0.5,1.1h4v-0.8l0.4,0.8h2.1l0.4-0.8v0.8h9.9l0-1.8h0.2c0.1,0,0.2,0,0.2,0.2v1.5H26v-0.4
		c0.4,0.2,1.1,0.4,1.9,0.4H30l0.5-1.1h1l0.4,1.1h4.1v-1l0.6,1h3.3V5.4h-3.3v0.8l-0.5-0.8h-3.4v0.8l-0.4-0.8H28c-0.8,0-1.4,0.1-2,0.4
		V5.4h-3.1v0.4c-0.3-0.3-0.8-0.4-1.3-0.4H10.1L9.3,7.2L8.5,5.4H4.9v0.8L4.5,5.4H1.4L0,8.7V12.2z M12.7,11.2h-1.2l0-3.8l-1.7,3.8h-1
		L7.1,7.4v3.8H4.7l-0.5-1.1H1.7l-0.5,1.1H0l2.1-4.8h1.8l2,4.6V6.4h1.9l1.5,3.3l1.4-3.3h2V11.2z M3.8,9.1L3,7.2L2.2,9.1H3.8z
		 M17.6,11.2h-3.9V6.4h3.9v1h-2.8v0.9h2.7v1h-2.7v1h2.8V11.2z M23.1,7.7c0,0.8-0.5,1.2-0.8,1.3c0.3,0.1,0.5,0.3,0.6,0.4
		c0.2,0.2,0.2,0.5,0.2,0.9v1h-1.2l0-0.6c0-0.3,0-0.7-0.2-0.9c-0.2-0.2-0.4-0.2-0.9-0.2h-1.3v1.8h-1.2V6.4h2.7c0.6,0,1,0,1.4,0.2
		C22.9,6.8,23.1,7.2,23.1,7.7z M21.6,8.4c-0.2,0.1-0.4,0.1-0.6,0.1h-1.4V7.4h1.5c0.2,0,0.4,0,0.6,0.1c0.2,0.1,0.2,0.2,0.2,0.4
		C21.9,8.2,21.8,8.3,21.6,8.4z M25,11.2h-1.2V6.4H25V11.2z M39,11.2h-1.7l-2.2-3.6v3.6h-2.4l-0.5-1.1h-2.5l-0.4,1.1h-1.4
		c-0.6,0-1.3-0.1-1.7-0.5c-0.4-0.4-0.6-1-0.6-1.9c0-0.7,0.1-1.4,0.6-1.9c0.4-0.4,1-0.6,1.8-0.6h1.1v1H28c-0.4,0-0.7,0.1-0.9,0.3
		c-0.2,0.2-0.3,0.6-0.3,1.1c0,0.5,0.1,0.9,0.3,1.1c0.2,0.2,0.5,0.3,0.8,0.3h0.5l1.7-3.8h1.8l2,4.6V6.4h1.8l2.1,3.4V6.4H39V11.2z
		 M31.8,9.1L31,7.2l-0.8,1.9H31.8z"/>
	<path class="st1" d="M42,19c-0.3,0.4-0.8,0.6-1.6,0.6h-2.3v-1h2.3c0.2,0,0.4,0,0.5-0.1c0.1-0.1,0.1-0.2,0.1-0.3
		c0-0.1-0.1-0.3-0.1-0.3c-0.1-0.1-0.2-0.1-0.4-0.1c-1.1,0-2.5,0-2.5-1.5c0-0.7,0.5-1.4,1.7-1.4H42v-1h-2.2c-0.7,0-1.1,0.2-1.5,0.4
		v-0.4h-3.2c-0.5,0-1.1,0.1-1.4,0.4v-0.4h-5.8v0.4c-0.5-0.3-1.2-0.4-1.6-0.4h-3.8v0.4c-0.4-0.3-1.2-0.4-1.7-0.4h-4.3l-1,1l-0.9-1
		H8.3v6.8h6.2l1-1.1l0.9,1.1l3.8,0V19h0.4c0.5,0,1.1,0,1.6-0.2v1.8h3.2v-1.8h0.2c0.2,0,0.2,0,0.2,0.2v1.6h9.6c0.6,0,1.3-0.2,1.6-0.4
		v0.4h3.1c0.6,0,1.3-0.1,1.7-0.3V19z M22.9,16.4c0,1.3-1,1.6-2.1,1.6h-1.5v1.6H17L15.6,18l-1.5,1.6H9.4v-4.9h4.7l1.5,1.6l1.5-1.6
		h3.8C21.8,14.8,22.9,15,22.9,16.4z M13.5,18.6h-2.9v-1h2.6v-1h-2.6v-0.9h3l1.3,1.4L13.5,18.6z M18.2,19.2l-1.8-2l1.8-1.9V19.2z
		 M20.8,17h-1.5v-1.2h1.5c0.4,0,0.7,0.2,0.7,0.6C21.6,16.8,21.3,17,20.8,17z M28.8,14.8h3.9v1H30v0.9h2.7v1H30v1l2.8,0v1h-3.9V14.8z
		 M27.3,17.4c0.3,0.1,0.5,0.3,0.6,0.4c0.2,0.2,0.2,0.5,0.2,0.9v1h-1.2V19c0-0.3,0-0.7-0.2-0.9c-0.2-0.2-0.4-0.2-0.9-0.2h-1.3v1.8
		h-1.2v-4.9h2.7c0.6,0,1,0,1.4,0.2c0.4,0.2,0.6,0.5,0.6,1.1C28.2,16.9,27.6,17.3,27.3,17.4z M26.7,16.8c-0.2,0.1-0.4,0.1-0.6,0.1
		h-1.4v-1.1h1.5c0.2,0,0.4,0,0.6,0.1c0.2,0.1,0.2,0.2,0.2,0.4C26.9,16.5,26.8,16.7,26.7,16.8z M37.3,17.1c0.2,0.2,0.4,0.5,0.4,1
		c0,1-0.7,1.5-1.9,1.5h-2.3v-1h2.3c0.2,0,0.4,0,0.5-0.1c0.1-0.1,0.1-0.2,0.1-0.3c0-0.1-0.1-0.3-0.1-0.3c-0.1-0.1-0.2-0.1-0.4-0.1
		c-1.1,0-2.5,0-2.5-1.5c0-0.7,0.5-1.4,1.7-1.4h2.4v1h-2.2c-0.2,0-0.4,0-0.5,0.1c-0.1,0.1-0.2,0.2-0.2,0.3c0,0.2,0.1,0.3,0.3,0.4
		c0.1,0,0.3,0.1,0.5,0.1l0.6,0C36.6,16.7,37,16.8,37.3,17.1z M42,15.8h-2.2c-0.2,0-0.4,0-0.5,0.1c-0.1,0.1-0.2,0.2-0.2,0.3
		c0,0.2,0.1,0.3,0.3,0.4c0.1,0,0.3,0.1,0.5,0.1l0.6,0c0.6,0,1.1,0.1,1.3,0.4l0.1,0.1V15.8z"/>
	<path class="st2" d="M46.2,0h37.5C85,0,86,1,86,2.2v21.6c0,1.2-1,2.2-2.2,2.2H46.2C45,26,44,25,44,23.8V2.2C44,1,45,0,46.2,0z"/>
	<path class="st1" d="M78.6,19.1c0,2.3-1.9,4.2-4.2,4.2H51.4V6.9c0-2.3,1.9-4.2,4.2-4.2h22.9V19.1z"/>
	
		<linearGradient id="SVGID_1_" gradientUnits="userSpaceOnUse" x1="-2.100298e-06" y1="4.492722e-06" x2="1" y2="4.492722e-06" gradientTransform="matrix(7.441 0 0 18.0893 69.6197 13.0001)">
		<stop  offset="0" style="stop-color:#007B40"/>
		<stop  offset="1" style="stop-color:#55B330"/>
	</linearGradient>
	<path class="st3" d="M71.1,13.4c0.7,0,1.3,0,2,0c0.7,0.1,0.8,1.1,0.2,1.4c-0.4,0.2-0.9,0.1-1.3,0.1h-0.9V13.4z M73.4,11.6
		c0.1,0.5-0.3,1-0.8,0.9h-1.5c0-0.5,0-1,0-1.4c0.6,0,1.2,0,1.8,0C73.2,11.1,73.4,11.3,73.4,11.6z M77,4.1c0,1,0,2,0,3c0,4,0,8,0,12
		c0,1.5-1.4,2.8-2.9,2.8c-1.5,0-3,0-4.5,0v-6.1c1.7,0,3.3,0,5,0c0.8,0,1.6-0.5,1.6-1.4c0.1-0.8-0.7-1.4-1.5-1.5
		c-0.3,0-0.3-0.1,0-0.1c0.7-0.2,1.3-0.9,1.1-1.6c-0.2-0.8-1.1-1.1-1.8-1.1c-1.5,0-3,0-4.4,0c0-1.1,0-2.3,0-3.4
		c0.1-1.5,1.5-2.7,3-2.7C74.1,4.1,75.6,4.1,77,4.1z"/>
	
		<linearGradient id="SVGID_2_" gradientUnits="userSpaceOnUse" x1="0" y1="-4.344207e-06" x2="1" y2="-4.344207e-06" gradientTransform="matrix(7.4358 0 0 18.0013 52.9415 13.0001)">
		<stop  offset="0" style="stop-color:#1D2970"/>
		<stop  offset="1" style="stop-color:#006DBA"/>
	</linearGradient>
	<path class="st4" d="M52.9,6.9c0-1.5,1.4-2.8,2.9-2.8c1.5,0,3,0,4.5,0c0,5,0,10,0,15.1c-0.1,1.5-1.4,2.8-2.9,2.8c-1.5,0-3,0-4.5,0
		v-6.3c1.5,0.3,3,0.5,4.5,0.3c0.9-0.1,1.9-0.6,2.2-1.5c0.2-0.8,0.1-1.6,0.1-2.4v-1.9h-2.6c0,1.2,0,2.5,0,3.7
		c-0.1,0.8-0.8,1.2-1.6,1.2c-0.9,0-2.7-0.6-2.7-0.6C52.9,12.1,52.9,9.2,52.9,6.9z"/>
	
		<linearGradient id="SVGID_3_" gradientUnits="userSpaceOnUse" x1="0" y1="1.221447e-05" x2="1" y2="1.221447e-05" gradientTransform="matrix(7.4361 0 0 18.0664 61.282 12.9999)">
		<stop  offset="0" style="stop-color:#6E2B2F"/>
		<stop  offset="1" style="stop-color:#E30138"/>
	</linearGradient>
	<path class="st5" d="M61.3,10.9c-0.1,0,0-0.5-0.1-0.6c0-1.2,0-2.3,0-3.5c0.1-1.5,1.5-2.7,3-2.7h4.4c0,5,0,10,0,15.1
		c-0.1,1.5-1.4,2.8-2.9,2.8c-1.5,0-3,0-4.5,0v-6.9c1,0.8,2.4,1,3.7,1c1,0,1.9-0.1,2.9-0.4v-1.3c-1.1,0.5-2.3,0.9-3.5,0.6
		c-0.8-0.2-1.4-1-1.4-1.8c-0.1-0.9,0.4-1.8,1.3-2c1.1-0.3,2.2-0.1,3.3,0.4c0.2,0.1,0.4,0.2,0.3-0.1v-1c-1.7-0.4-3.5-0.5-5.2-0.1
		C62.2,10.4,61.7,10.6,61.3,10.9z"/>
	<path d="M90.2,0h37.5c1.2,0,2.2,1,2.2,2.2v21.6c0,1.2-1,2.2-2.2,2.2H90.2C89,26,88,25,88,23.8V2.2C88,1,89,0,90.2,0z"/>
	<path class="st6" d="M112.3,13c0,5.5-4.5,9.9-10.1,9.9S92.2,18.5,92.2,13c0-5.5,4.5-9.9,10.1-9.9S112.3,7.5,112.3,13"/>
	<path class="st7" d="M115.7,3.1c-2.6,0-5,1-6.7,2.6c-0.4,0.3-0.7,0.7-1,1h2c0.3,0.3,0.5,0.7,0.8,1h-3.6c-0.2,0.3-0.4,0.7-0.6,1h4.7
		c0.2,0.3,0.3,0.7,0.4,1h-5.6c-0.1,0.3-0.2,0.7-0.3,1h6.2c0.1,0.7,0.2,1.4,0.2,2.1c0,1.1-0.2,2.2-0.5,3.1h-5.6
		c0.1,0.4,0.3,0.7,0.4,1h4.7c-0.2,0.4-0.4,0.7-0.6,1h-3.6c0.2,0.4,0.5,0.7,0.8,1h2c-0.3,0.4-0.7,0.7-1,1c1.8,1.6,4.2,2.6,6.7,2.6
		c5.6,0,10.1-4.4,10.1-9.9C125.8,7.5,121.3,3.1,115.7,3.1"/>
	<path d="M124.5,18.5c0-0.2,0.1-0.3,0.3-0.3c0.2,0,0.3,0.1,0.3,0.3s-0.1,0.3-0.3,0.3C124.6,18.8,124.5,18.7,124.5,18.5z M124.8,18.8
		c0.1,0,0.2-0.1,0.2-0.2c0-0.1-0.1-0.2-0.2-0.2c-0.1,0-0.2,0.1-0.2,0.2C124.5,18.7,124.6,18.8,124.8,18.8z M124.7,18.7L124.7,18.7
		l-0.1-0.3h0.1l0.1,0l0,0.1l0,0.1l0.1,0.1H124.7l0-0.1h0V18.7z M124.7,18.5L124.7,18.5L124.7,18.5L124.7,18.5L124.7,18.5L124.7,18.5
		L124.7,18.5L124.7,18.5z"/>
	<path d="M99.9,14.1c-0.1,0-0.2,0-0.2,0c-0.6,0-0.9,0.2-0.9,0.6c0,0.3,0.2,0.4,0.4,0.4C99.6,15.1,99.9,14.7,99.9,14.1z M100.7,15.9
		h-0.9l0-0.4c-0.3,0.3-0.6,0.5-1.1,0.5c-0.6,0-1-0.5-1-1.1c0-1,0.7-1.6,1.9-1.6c0.1,0,0.3,0,0.4,0c0-0.1,0-0.2,0-0.3
		c0-0.3-0.2-0.4-0.7-0.4c-0.5,0-1,0.1-1.2,0.2l0.2-0.9c0.5-0.2,0.9-0.2,1.3-0.2c0.9,0,1.4,0.4,1.4,1.2c0,0.2,0,0.5-0.1,0.8
		C100.9,14.3,100.7,15.6,100.7,15.9z"/>
	<polyline points="97.2,15.9 96.1,15.9 96.8,12 95.4,15.9 94.6,15.9 94.5,12.1 93.9,15.9 92.8,15.9 93.7,10.9 95.3,10.9 95.4,13.7 
		96.3,10.9 98.1,10.9 97.2,15.9 	"/>
	<path d="M117.1,14.1c-0.1,0-0.2,0-0.2,0c-0.6,0-0.9,0.2-0.9,0.6c0,0.3,0.2,0.4,0.4,0.4C116.8,15.1,117.1,14.7,117.1,14.1z
		 M117.9,15.9H117l0-0.4c-0.3,0.3-0.6,0.5-1.1,0.5c-0.6,0-1-0.5-1-1.1c0-1,0.7-1.6,1.9-1.6c0.1,0,0.3,0,0.4,0c0-0.1,0-0.2,0-0.3
		c0-0.3-0.2-0.4-0.7-0.4c-0.5,0-1,0.1-1.2,0.2l0.2-0.9c0.5-0.2,0.9-0.2,1.3-0.2c0.9,0,1.4,0.4,1.4,1.2c0,0.2,0,0.5-0.1,0.8
		C118.1,14.3,117.9,15.6,117.9,15.9z"/>
	<path d="M105.5,15.8c-0.3,0.1-0.5,0.1-0.8,0.1c-0.6,0-0.9-0.3-0.9-0.9c0-0.2,0.1-0.7,0.1-1.1c0.1-0.4,0.5-2.8,0.5-2.8h1.1l-0.1,0.6
		h0.7l-0.1,1h-0.7c-0.1,0.8-0.3,1.7-0.3,1.9c0,0.2,0.1,0.3,0.4,0.3c0.1,0,0.2,0,0.3,0L105.5,15.8"/>
	<path d="M108.9,15.8c-0.4,0.1-0.7,0.2-1.1,0.2c-1.2,0-1.8-0.6-1.8-1.8c0-1.4,0.8-2.4,1.9-2.4c0.9,0,1.5,0.6,1.5,1.5
		c0,0.3,0,0.6-0.1,1H107c-0.1,0.6,0.3,0.8,0.9,0.8c0.4,0,0.7-0.1,1.1-0.3L108.9,15.8z M108.3,13.4c0-0.1,0.1-0.7-0.5-0.7
		c-0.3,0-0.6,0.3-0.7,0.7H108.3z"/>
	<path d="M101.4,13.1c0,0.5,0.3,0.9,0.8,1.1c0.4,0.2,0.5,0.3,0.5,0.5c0,0.3-0.2,0.4-0.6,0.4c-0.3,0-0.6-0.1-1-0.2l-0.1,0.9
		c0.2,0.1,0.5,0.1,1.1,0.1c1.2,0,1.7-0.4,1.7-1.4c0-0.6-0.2-0.9-0.8-1.1c-0.5-0.2-0.5-0.3-0.5-0.4c0-0.2,0.2-0.3,0.5-0.3
		c0.2,0,0.5,0,0.8,0.1l0.2-0.9c-0.3,0-0.7-0.1-1-0.1C101.8,11.7,101.3,12.4,101.4,13.1"/>
	<path d="M114.2,11.8c0.3,0,0.6,0.1,1,0.3l0.2-1.1c-0.2-0.1-0.7-0.4-1.2-0.4c-0.7,0-1.3,0.4-1.8,0.9c-0.6-0.2-0.9,0.2-1.2,0.6
		l-0.3,0.1c0-0.1,0-0.3,0-0.4h-1c-0.1,1.3-0.4,2.5-0.6,3.8l0,0.3h1.1c0.2-1.2,0.3-1.9,0.3-2.4l0.4-0.2c0.1-0.2,0.3-0.3,0.6-0.3
		c-0.1,0.3-0.1,0.5-0.1,0.8c0,1.3,0.7,2.2,1.9,2.2c0.3,0,0.6,0,1-0.1l0.2-1.1c-0.4,0.2-0.7,0.3-0.9,0.3c-0.6,0-1-0.5-1-1.2
		C112.8,12.6,113.4,11.8,114.2,11.8"/>
	<polyline class="st1" points="97.5,15.6 96.4,15.6 97.1,11.7 95.7,15.6 94.9,15.6 94.8,11.8 94.2,15.6 93.2,15.6 94,10.6 
		95.6,10.6 95.6,13.7 96.7,10.6 98.4,10.6 97.5,15.6 	"/>
	<path d="M123.4,10.9l-0.2,1.5c-0.3-0.4-0.6-0.7-1-0.7c-0.6,0-1.1,0.4-1.4,1c-0.5-0.1-0.9-0.3-0.9-0.3v0c0-0.3,0.1-0.5,0-0.6h-1
		c-0.1,1.3-0.4,2.5-0.6,3.8l0,0.3h1.1c0.1-0.9,0.3-1.7,0.3-2.3c0.4-0.3,0.6-0.6,0.9-0.6c-0.2,0.4-0.3,0.9-0.3,1.3
		c0,1,0.5,1.7,1.3,1.7c0.4,0,0.7-0.1,1-0.5l-0.1,0.4h1l0.8-5H123.4z M122.1,15c-0.4,0-0.6-0.3-0.6-0.8c0-0.8,0.4-1.4,0.8-1.4
		c0.4,0,0.6,0.3,0.6,0.8C122.9,14.4,122.6,15,122.1,15z"/>
	<path class="st1" d="M100.2,13.8c-0.1,0-0.2,0-0.2,0c-0.6,0-0.9,0.2-0.9,0.6c0,0.3,0.2,0.4,0.4,0.4
		C99.9,14.8,100.2,14.4,100.2,13.8z M101,15.6h-0.9l0-0.4c-0.3,0.3-0.6,0.5-1.1,0.5c-0.6,0-1-0.5-1-1.1c0-1,0.7-1.6,1.9-1.6
		c0.1,0,0.3,0,0.4,0c0-0.1,0-0.2,0-0.3c0-0.3-0.2-0.4-0.7-0.4c-0.5,0-1,0.1-1.2,0.2l0.2-0.9c0.5-0.2,0.9-0.2,1.3-0.2
		c0.9,0,1.4,0.4,1.4,1.2c0,0.2,0,0.5-0.1,0.8C101.2,14,101,15.3,101,15.6z"/>
	<path class="st1" d="M115.6,10.7l-0.2,1.1c-0.4-0.2-0.7-0.3-1-0.3c-0.8,0-1.4,0.8-1.4,1.9c0,0.8,0.4,1.2,1,1.2
		c0.3,0,0.6-0.1,0.9-0.3l-0.2,1.1c-0.4,0.1-0.7,0.1-1,0.1c-1.2,0-1.9-0.8-1.9-2.2c0-1.8,1-3.1,2.5-3.1
		C114.9,10.5,115.5,10.7,115.6,10.7"/>
	<path class="st1" d="M117.4,13.8c-0.1,0-0.2,0-0.2,0c-0.6,0-0.9,0.2-0.9,0.6c0,0.3,0.2,0.4,0.4,0.4
		C117.1,14.8,117.4,14.4,117.4,13.8z M118.2,15.6h-0.9l0-0.4c-0.3,0.3-0.6,0.5-1.1,0.5c-0.6,0-1-0.5-1-1.1c0-1,0.7-1.6,1.9-1.6
		c0.1,0,0.3,0,0.4,0c0-0.1,0-0.2,0-0.3c0-0.3-0.2-0.4-0.7-0.4c-0.5,0-1,0.1-1.2,0.2l0.2-0.9c0.5-0.2,0.9-0.2,1.3-0.2
		c0.9,0,1.4,0.4,1.4,1.2c0,0.2,0,0.5-0.1,0.8C118.4,14,118.2,15.3,118.2,15.6z"/>
	<path class="st1" d="M105.9,15.5c-0.3,0.1-0.5,0.1-0.8,0.1c-0.6,0-0.9-0.3-0.9-0.9c0-0.2,0.1-0.7,0.2-1.1c0.1-0.4,0.5-2.8,0.5-2.8
		h1.1l-0.1,0.6h0.6l-0.1,1h-0.6c-0.1,0.8-0.3,1.7-0.3,1.9c0,0.2,0.1,0.3,0.4,0.3c0.1,0,0.2,0,0.3,0L105.9,15.5"/>
	<path class="st1" d="M109.2,15.5c-0.4,0.1-0.7,0.2-1.1,0.2c-1.2,0-1.8-0.6-1.8-1.8c0-1.4,0.8-2.4,1.9-2.4c0.9,0,1.5,0.6,1.5,1.5
		c0,0.3,0,0.6-0.1,1h-2.2c-0.1,0.6,0.3,0.8,0.9,0.8c0.4,0,0.7-0.1,1.1-0.3L109.2,15.5z M108.6,13.1c0-0.1,0.1-0.7-0.5-0.7
		c-0.3,0-0.6,0.3-0.7,0.7H108.6z"/>
	<path class="st1" d="M101.7,12.8c0,0.5,0.3,0.9,0.8,1.1c0.4,0.2,0.5,0.3,0.5,0.5c0,0.3-0.2,0.4-0.6,0.4c-0.3,0-0.6-0.1-1-0.2
		l-0.2,0.9c0.2,0.1,0.5,0.1,1.1,0.1c1.2,0,1.7-0.4,1.7-1.4c0-0.6-0.2-0.9-0.8-1.1c-0.5-0.2-0.5-0.3-0.5-0.4c0-0.2,0.2-0.3,0.5-0.3
		c0.2,0,0.5,0,0.8,0.1l0.2-0.9c-0.3,0-0.7-0.1-1-0.1C102.1,11.4,101.7,12.1,101.7,12.8"/>
	<path class="st1" d="M124,15.6h-1l0.1-0.4c-0.3,0.3-0.6,0.5-1,0.5c-0.8,0-1.3-0.7-1.3-1.7c0-1.4,0.8-2.5,1.8-2.5
		c0.4,0,0.7,0.2,1,0.6l0.2-1.5h1.1L124,15.6z M122.4,14.7c0.5,0,0.9-0.6,0.9-1.4c0-0.5-0.2-0.8-0.6-0.8c-0.5,0-0.8,0.6-0.8,1.4
		C121.8,14.4,122,14.7,122.4,14.7z"/>
	<path class="st1" d="M119.2,11.5c-0.1,1.3-0.4,2.5-0.6,3.8l0,0.3h1.1c0.4-2.5,0.5-3,1.1-2.9c0.1-0.5,0.3-1,0.4-1.2
		c-0.5-0.1-0.7,0.2-1,0.6c0-0.2,0.1-0.4,0.1-0.6H119.2"/>
	<path class="st1" d="M110.2,11.5c-0.1,1.3-0.4,2.5-0.6,3.8l0,0.3h1.1c0.4-2.5,0.5-3,1.1-2.9c0.1-0.5,0.3-1,0.4-1.2
		c-0.5-0.1-0.7,0.2-1,0.6c0-0.2,0.1-0.4,0.1-0.6H110.2"/>
	<path class="st1" d="M124.5,15.3c0-0.2,0.1-0.3,0.3-0.3c0.2,0,0.3,0.1,0.3,0.3c0,0.2-0.1,0.3-0.3,0.3
		C124.6,15.6,124.5,15.5,124.5,15.3z M124.8,15.5c0.1,0,0.2-0.1,0.2-0.2c0-0.1-0.1-0.2-0.2-0.2c-0.1,0-0.2,0.1-0.2,0.2
		C124.5,15.4,124.6,15.5,124.8,15.5z M124.7,15.4L124.7,15.4l-0.1-0.3h0.1l0.1,0l0,0.1l0,0.1l0.1,0.1H124.7l0-0.1h0V15.4z
		 M124.7,15.3L124.7,15.3L124.7,15.3L124.7,15.3L124.7,15.3L124.7,15.3L124.7,15.3L124.7,15.3z"/>
	<path class="st8" d="M134.2,0h37.5c1.2,0,2.2,1,2.2,2.2v21.6c0,1.2-1,2.2-2.2,2.2h-37.5c-1.2,0-2.2-1-2.2-2.2V2.2
		C132,1,133,0,134.2,0z"/>
	<polygon class="st1" points="147.6,18.5 149.4,7.6 152.4,7.6 150.6,18.5 	"/>
	<path class="st1" d="M161.4,7.9c-0.6-0.2-1.5-0.5-2.7-0.5c-3,0-5,1.5-5.1,3.6c0,1.6,1.5,2.4,2.6,2.9c1.2,0.5,1.6,0.9,1.5,1.3
		c0,0.7-0.9,1.1-1.8,1.1c-1.2,0-1.8-0.2-2.8-0.6l-0.4-0.2l-0.4,2.4c0.7,0.3,2,0.6,3.3,0.6c3.1,0,5.2-1.4,5.2-3.7
		c0-1.2-0.8-2.2-2.5-2.9c-1-0.5-1.7-0.8-1.7-1.3c0-0.4,0.5-0.9,1.7-0.9c1,0,1.7,0.2,2.2,0.4l0.3,0.1L161.4,7.9"/>
	<path class="st1" d="M169.1,7.6h-2.3c-0.7,0-1.3,0.2-1.6,0.9l-4.4,9.9h3.1c0,0,0.5-1.3,0.6-1.6c0.3,0,3.4,0,3.8,0
		c0.1,0.4,0.4,1.6,0.4,1.6h2.8L169.1,7.6z M165.4,14.6c0.2-0.6,1.2-3,1.2-3c0,0,0.2-0.6,0.4-1l0.2,0.9c0,0,0.6,2.6,0.7,3.1H165.4z"
		/>
	<path class="st1" d="M145,7.6l-2.9,7.4l-0.3-1.5c-0.5-1.7-2.2-3.6-4.1-4.5l2.7,9.5l3.2,0l4.7-10.8H145"/>
	<path class="st9" d="M139.4,7.6h-4.8l0,0.2c3.7,0.9,6.2,3.1,7.3,5.7l-1-5C140.6,7.9,140,7.7,139.4,7.6"/>
</g>
</svg>
